<?xml version="1.0" encoding="utf-8"?>
<!-- Generator: Adobe Illustrator 27.1.1, SVG Export Plug-In . SVG Version: 6.00 Build 0)  -->
<svg version="1.1" id="Layer_1" xmlns="http://www.w3.org/2000/svg" xmlns:xlink="http://www.w3.org/1999/xlink" x="0px" y="0px"
	 viewBox="0 0 144 144" style="enable-background:new 0 0 144 144;" xml:space="preserve">
<style type="text/css">
	.st0{fill:#535353;}
</style>
<path class="st0" d="M-12.4,131.8h11.6v2.9h-11.6V131.8z M28.1,131.8h5.8v2.9h-5.8V131.8z M126.7,131.8h11.6v2.9h-11.6V131.8z
	 M103.5,70.9h-5.8v20.3h-5.8v8.7h-5.8v5.8h-5.8v23.2h5.8v5.8H74.5v-17.4h-5.8v-5.8h-5.8v5.8h-5.8v5.8h-5.8v5.8h5.8v5.8H45.5v-23.2
	h-5.8v-5.8h-5.8v-5.8h-5.8v-5.8h-5.8v-5.8h-5.8V53.5h5.8v11.6h5.8v5.8h5.8v5.8h11.6v-5.8h5.8v-5.8H60v-5.8h8.7v-5.8h5.8V15.8h5.8V10
	h46.4v5.8h5.8v26.1h-29v5.8h17.4v5.8H97.7v11.6h11.6v11.6h-5.8V70.9z M106.4,128.9h2.9v2.9h-2.9V128.9z M5,123.1h11.6v2.9H5V123.1z
	 M147,120.2h8.7v2.9H147V120.2z M-12.4,111.5h46.4v2.9h-46.4V111.5z M91.9,111.5h81.2v2.9H91.9V111.5z M86.1,18.7v5.8h5.8v-5.8H86.1
	z"/>
</svg>
